<mxfile host="app.diagrams.net" modified="2021-02-18T11:20:44.058Z" agent="5.0 (Windows NT 10.0; Win64; x64) AppleWebKit/537.36 (KHTML, like Gecko) Chrome/88.0.4324.150 Safari/537.36 Edg/88.0.705.68" etag="aupDH6CdI4qymNvJR0fy" version="14.4.0" type="github">
  <diagram id="DM9bzLAxxgltcUpwpXC7" name="Page-1">
    <mxGraphModel dx="782" dy="469" grid="1" gridSize="10" guides="1" tooltips="1" connect="1" arrows="1" fold="1" page="1" pageScale="1" pageWidth="850" pageHeight="1100" math="0" shadow="0">
      <root>
        <mxCell id="0" />
        <mxCell id="1" parent="0" />
        <mxCell id="4yBhDFMyqruRVCVulNQJ-1" value="Customer: &quot;The printer is not printing&quot;" style="rounded=1;whiteSpace=wrap;html=1;" vertex="1" parent="1">
          <mxGeometry x="40" y="40" width="120" height="60" as="geometry" />
        </mxCell>
        <mxCell id="4yBhDFMyqruRVCVulNQJ-2" value="Is it plugged in?" style="rounded=1;whiteSpace=wrap;html=1;" vertex="1" parent="1">
          <mxGeometry x="220" y="40" width="120" height="60" as="geometry" />
        </mxCell>
        <mxCell id="4yBhDFMyqruRVCVulNQJ-3" value="" style="endArrow=classic;html=1;exitX=0.428;exitY=1.044;exitDx=0;exitDy=0;exitPerimeter=0;" edge="1" parent="1" source="4yBhDFMyqruRVCVulNQJ-2" target="4yBhDFMyqruRVCVulNQJ-4">
          <mxGeometry width="50" height="50" relative="1" as="geometry">
            <mxPoint x="255" y="170" as="sourcePoint" />
            <mxPoint x="271" y="160" as="targetPoint" />
          </mxGeometry>
        </mxCell>
        <mxCell id="4yBhDFMyqruRVCVulNQJ-4" value="Is there a filled ink cartridge fitted?" style="rounded=1;whiteSpace=wrap;html=1;" vertex="1" parent="1">
          <mxGeometry x="211" y="160" width="120" height="60" as="geometry" />
        </mxCell>
        <mxCell id="4yBhDFMyqruRVCVulNQJ-5" value="" style="endArrow=classic;html=1;" edge="1" parent="1">
          <mxGeometry width="50" height="50" relative="1" as="geometry">
            <mxPoint x="270" y="220" as="sourcePoint" />
            <mxPoint x="270" y="290" as="targetPoint" />
            <Array as="points">
              <mxPoint x="270" y="220" />
              <mxPoint x="270" y="250" />
            </Array>
          </mxGeometry>
        </mxCell>
        <mxCell id="4yBhDFMyqruRVCVulNQJ-8" value="Is there paper in the tray?" style="rounded=1;whiteSpace=wrap;html=1;" vertex="1" parent="1">
          <mxGeometry x="211" y="290" width="120" height="60" as="geometry" />
        </mxCell>
        <mxCell id="4yBhDFMyqruRVCVulNQJ-9" value="Is&amp;nbsp; the paper properly fitted/fitting in the track?" style="rounded=1;whiteSpace=wrap;html=1;" vertex="1" parent="1">
          <mxGeometry x="211" y="390" width="120" height="60" as="geometry" />
        </mxCell>
        <mxCell id="4yBhDFMyqruRVCVulNQJ-10" value="Cust: I can see part of the page sticking out" style="rounded=1;whiteSpace=wrap;html=1;" vertex="1" parent="1">
          <mxGeometry y="130" width="120" height="60" as="geometry" />
        </mxCell>
        <mxCell id="4yBhDFMyqruRVCVulNQJ-11" value="" style="endArrow=classic;html=1;exitX=0.5;exitY=1;exitDx=0;exitDy=0;entryX=0.5;entryY=0;entryDx=0;entryDy=0;" edge="1" parent="1" source="4yBhDFMyqruRVCVulNQJ-8" target="4yBhDFMyqruRVCVulNQJ-9">
          <mxGeometry width="50" height="50" relative="1" as="geometry">
            <mxPoint x="380" y="360" as="sourcePoint" />
            <mxPoint x="430" y="310" as="targetPoint" />
          </mxGeometry>
        </mxCell>
        <mxCell id="4yBhDFMyqruRVCVulNQJ-12" value="Is the printer jamming when it prints? Is there more than one page&amp;nbsp; being printed out?" style="rounded=1;whiteSpace=wrap;html=1;" vertex="1" parent="1">
          <mxGeometry x="211" y="490" width="120" height="70" as="geometry" />
        </mxCell>
        <mxCell id="4yBhDFMyqruRVCVulNQJ-13" value="" style="endArrow=classic;html=1;exitX=0.5;exitY=1;exitDx=0;exitDy=0;entryX=0.5;entryY=0;entryDx=0;entryDy=0;" edge="1" parent="1" source="4yBhDFMyqruRVCVulNQJ-9" target="4yBhDFMyqruRVCVulNQJ-12">
          <mxGeometry width="50" height="50" relative="1" as="geometry">
            <mxPoint x="380" y="520" as="sourcePoint" />
            <mxPoint x="430" y="470" as="targetPoint" />
          </mxGeometry>
        </mxCell>
        <mxCell id="4yBhDFMyqruRVCVulNQJ-20" value="" style="edgeStyle=orthogonalEdgeStyle;rounded=0;orthogonalLoop=1;jettySize=auto;html=1;" edge="1" parent="1" source="4yBhDFMyqruRVCVulNQJ-14" target="4yBhDFMyqruRVCVulNQJ-18">
          <mxGeometry relative="1" as="geometry" />
        </mxCell>
        <mxCell id="4yBhDFMyqruRVCVulNQJ-14" value="YES" style="rhombus;whiteSpace=wrap;html=1;" vertex="1" parent="1">
          <mxGeometry x="370" y="480" width="80" height="80" as="geometry" />
        </mxCell>
        <mxCell id="4yBhDFMyqruRVCVulNQJ-15" value="" style="endArrow=classic;html=1;entryX=0;entryY=0.5;entryDx=0;entryDy=0;" edge="1" parent="1" target="4yBhDFMyqruRVCVulNQJ-14">
          <mxGeometry width="50" height="50" relative="1" as="geometry">
            <mxPoint x="340" y="520" as="sourcePoint" />
            <mxPoint x="430" y="470" as="targetPoint" />
          </mxGeometry>
        </mxCell>
        <mxCell id="4yBhDFMyqruRVCVulNQJ-18" value="Can you open the &quot;lid&quot; on the printer and remove the jammed paper?" style="rounded=1;whiteSpace=wrap;html=1;" vertex="1" parent="1">
          <mxGeometry x="510" y="490" width="120" height="60" as="geometry" />
        </mxCell>
      </root>
    </mxGraphModel>
  </diagram>
</mxfile>
